#N canvas 381 103 985 468 10;
#X obj 119 352 couchdb;
#X msg 129 46 url http://127.0.0.1:5984/;
#X obj 314 373 couchdb http://127.0.0.1:5984/;
#X msg 167 84 couchdb PUT test;
#X msg 238 267 couchdb DELETE test;
#X msg 190 125 couchdb GET test;
#X obj 465 125 json-encode;
#X msg 390 6 add id 1;
#X msg 497 35 bang;
#X msg 514 59 clear;
#X msg 207 172 couchdb PUT test/1 \$1;
#X msg 476 8 add name residuum;
#X obj 546 190 print json-encoded data;
#X obj 453 161 t a a;
#X msg 222 199 couchdb GET test/1;
#X msg 275 294 couchdb GET _uuids;
#X msg 232 221 couchdb DELETE test/1;
#X obj 689 73 json-encode;
#X msg 664 -12 add name Der Discokeller des Grauens;
#X msg 717 25 add year 2011;
#X msg 794 49 bang;
#X msg 557 95 add album \$1;
#X obj 513 265 json-decode;
#X obj 122 397 print data from couchdb;
#X obj 520 317 print decode json data;
#X msg 637 117 add member Thomas M;
#X connect 0 0 23 0;
#X connect 1 0 0 0;
#X connect 3 0 0 0;
#X connect 4 0 0 0;
#X connect 5 0 0 0;
#X connect 6 0 13 0;
#X connect 7 0 6 0;
#X connect 8 0 6 0;
#X connect 9 0 6 0;
#X connect 10 0 0 0;
#X connect 11 0 6 0;
#X connect 13 0 10 0;
#X connect 13 0 22 0;
#X connect 13 1 12 0;
#X connect 14 0 0 0;
#X connect 15 0 0 0;
#X connect 16 0 0 0;
#X connect 17 0 21 0;
#X connect 18 0 17 0;
#X connect 19 0 17 0;
#X connect 20 0 17 0;
#X connect 21 0 6 0;
#X connect 22 0 24 0;
#X connect 25 0 6 0;
