#N canvas 0 0 985 468 10;
#X obj 152 223 couchdb;
#X msg 129 46 url http://127.0.0.1:5984/;
#X obj 251 226 couchdb http://127.0.0.1:5984/;
#X msg 167 84 couchdb PUT test;
#X msg 200 163 couchdb DELETE test;
#X msg 190 125 couchdb GET test;
#X obj 507 101 json-encode;
#X msg 432 -18 add id 1;
#X msg 539 11 bang;
#X msg 556 35 clear;
#X msg 634 69 add akdjf asdfadf adfadsf;
#X msg 423 184 couchdb PUT test/1 \$1;
#X msg 518 -16 add name residuum;
#X obj 588 166 print json-encoded data;
#X obj 495 137 t a a;
#X connect 1 0 0 0;
#X connect 3 0 0 0;
#X connect 4 0 0 0;
#X connect 5 0 0 0;
#X connect 6 0 14 0;
#X connect 7 0 6 0;
#X connect 8 0 6 0;
#X connect 9 0 6 0;
#X connect 10 0 6 0;
#X connect 11 0 0 0;
#X connect 12 0 6 0;
#X connect 14 0 11 0;
#X connect 14 1 13 0;
