#N canvas 43 32 985 691 10;
#X obj 154 306 couchdb;
#X msg 129 46 url http://127.0.0.1:5984/;
#X obj 664 116 couchdb http://127.0.0.1:5984/;
#X obj 368 88 json-encode;
#X msg 586 87 bang;
#X msg 701 77 clear;
#X obj 546 190 print json-encoded data;
#X obj 363 126 t a a;
#X obj 513 265 json-decode;
#X obj 520 317 print decode json data;
#X msg 340 5 add value 440;
#X obj 132 617 line;
#X floatatom 132 663 5 0 0 0 - - -;
#X obj 131 564 pack f f f;
#X msg 131 592 \$1 \, \$2 \$3;
#X msg 576 3 add start 10;
#X obj 171 535 unpack f;
#X obj 233 538 unpack f;
#X obj 94 536 unpack f;
#X obj 169 353 list trim;
#X obj 46 389 t b b b b;
#X obj 361 543 print id;
#X obj 98 515 f;
#X obj 175 514 f;
#X obj 237 517 f;
#X msg 765 30 add name first note;
#X obj 328 459 print name;
#X msg 442 5 add duration 1000;
#X msg 686 -1 add name wrong name;
#X obj 139 392 route start value duration _id name on;
#X obj 464 452 f;
#X msg 717 210 add on TRUE;
#X msg 167 84 PUT test;
#X msg 190 125 GET test;
#X msg 213 172 PUT test/1 \$1;
#X msg 222 199 GET test/1;
#X msg 238 267 DELETE test;
#X connect 0 0 19 0;
#X connect 0 1 20 0;
#X connect 1 0 0 0;
#X connect 3 0 7 0;
#X connect 4 0 3 0;
#X connect 5 0 3 0;
#X connect 7 0 34 0;
#X connect 7 0 8 0;
#X connect 7 1 6 0;
#X connect 8 0 9 0;
#X connect 10 0 3 0;
#X connect 11 0 12 0;
#X connect 13 0 14 0;
#X connect 14 0 11 0;
#X connect 15 0 3 0;
#X connect 16 0 13 1;
#X connect 17 0 13 2;
#X connect 18 0 13 0;
#X connect 19 0 29 0;
#X connect 20 0 22 0;
#X connect 20 1 23 0;
#X connect 20 2 24 0;
#X connect 22 0 18 0;
#X connect 23 0 16 0;
#X connect 24 0 17 0;
#X connect 25 0 3 0;
#X connect 27 0 3 0;
#X connect 28 0 3 0;
#X connect 29 0 22 1;
#X connect 29 1 23 1;
#X connect 29 2 24 1;
#X connect 29 3 21 0;
#X connect 29 4 26 0;
#X connect 29 5 30 0;
#X connect 31 0 3 0;
#X connect 32 0 0 0;
#X connect 33 0 0 0;
#X connect 34 0 0 0;
#X connect 35 0 0 0;
#X connect 36 0 0 0;
