#N canvas 0 0 985 403 10;
#X obj 152 223 couchdb;
#X msg 129 46 url http://127.0.0.1:5984/;
#X obj 251 226 couchdb http://127.0.0.1:5984/;
#X msg 167 84 couchdb PUT test;
#X msg 200 163 couchdb DELETE test;
#X msg 190 125 couchdb GET test;
#X obj 619 158 json-encode;
#X msg 544 39 add id 1;
#X msg 630 41 add name superdupername;
#X msg 651 68 bang;
#X msg 668 92 clear;
#X msg 746 126 add akdjf asdfadf adfadsf;
#X obj 610 221 print;
#X connect 1 0 0 0;
#X connect 3 0 0 0;
#X connect 4 0 0 0;
#X connect 5 0 0 0;
#X connect 6 0 12 0;
#X connect 7 0 6 0;
#X connect 8 0 6 0;
#X connect 9 0 6 0;
#X connect 10 0 6 0;
#X connect 11 0 6 0;
