#N canvas 0 0 450 300 10;
#X obj 152 223 couchdb;
#X msg 129 46 url http://127.0.0.1:5984/;
#X obj 251 226 couchdb http://127.0.0.1:5984/;
#X msg 167 84 couchdb PUT test;
#X msg 200 163 couchdb DELETE test;
#X msg 190 125 couchdb GET test;
#X connect 1 0 0 0;
#X connect 3 0 0 0;
#X connect 4 0 0 0;
#X connect 5 0 0 0;
