#N canvas 43 32 985 691 10;
#X obj 154 306 couchdb;
#X msg 129 46 url http://127.0.0.1:5984/;
#X obj 664 116 couchdb http://127.0.0.1:5984/;
#X msg 167 84 couchdb PUT test;
#X msg 238 267 couchdb DELETE test;
#X msg 190 125 couchdb GET test;
#X obj 368 88 json-encode;
#X msg 586 87 bang;
#X msg 701 77 clear;
#X msg 213 172 couchdb PUT test/1 \$1;
#X obj 546 190 print json-encoded data;
#X obj 363 126 t a a;
#X msg 222 199 couchdb GET test/1;
#X obj 513 265 json-decode;
#X obj 520 317 print decode json data;
#X msg 340 5 add value 440;
#X obj 132 617 line;
#X floatatom 132 663 5 0 0 0 - - -;
#X obj 131 564 pack f f f;
#X msg 131 592 \$1 \, \$2 \$3;
#X msg 576 3 add start 10;
#X obj 171 535 unpack f;
#X obj 233 538 unpack f;
#X obj 94 536 unpack f;
#X obj 169 353 list trim;
#X obj 46 389 t b b b b;
#X obj 361 543 print id;
#X obj 98 515 f;
#X obj 175 514 f;
#X obj 237 517 f;
#X msg 765 30 add name first note;
#X obj 328 459 print name;
#X msg 442 5 add duration 1000;
#X msg 686 -1 add name wrong name;
#X obj 139 392 route start value duration _id name on;
#X obj 464 452 f;
#X msg 717 210 add on TRUE;
#X connect 0 0 24 0;
#X connect 0 1 25 0;
#X connect 1 0 0 0;
#X connect 3 0 0 0;
#X connect 4 0 0 0;
#X connect 5 0 0 0;
#X connect 6 0 11 0;
#X connect 7 0 6 0;
#X connect 8 0 6 0;
#X connect 9 0 0 0;
#X connect 11 0 9 0;
#X connect 11 0 13 0;
#X connect 11 1 10 0;
#X connect 12 0 0 0;
#X connect 13 0 14 0;
#X connect 15 0 6 0;
#X connect 16 0 17 0;
#X connect 18 0 19 0;
#X connect 19 0 16 0;
#X connect 20 0 6 0;
#X connect 21 0 18 1;
#X connect 22 0 18 2;
#X connect 23 0 18 0;
#X connect 24 0 34 0;
#X connect 25 0 27 0;
#X connect 25 1 28 0;
#X connect 25 2 29 0;
#X connect 27 0 23 0;
#X connect 28 0 21 0;
#X connect 29 0 22 0;
#X connect 30 0 6 0;
#X connect 32 0 6 0;
#X connect 33 0 6 0;
#X connect 34 0 27 1;
#X connect 34 1 28 1;
#X connect 34 2 29 1;
#X connect 34 3 26 0;
#X connect 34 4 31 0;
#X connect 34 5 35 0;
#X connect 36 0 6 0;
