#N canvas 152 148 952 574 10;
#X declare -lib purest_json;
#X obj 457 -40 import purest_json;
#X obj 19 -60 oauth;
#X text 57 -61 - object for HTTP communication with OAUTH webservices
;
#X text 17 -33 [oauth] is an object for communication with OAUTH enbabled
webservices that return JSON data. Request methods GET and POST are
available.;
#X text 17 3 All requests are issued with [REQUEST_METHOD URL DATA(
where REQUEST_METHOD is the uppercase verb of the method \, URL is
the relative server path \, and DATA are url parameters to add to the
url. For creating the data \, see;
#X obj 21 58 urlparams;
#X text 18 90 HTTP requests are asynchronous. While [oauth] waits for
the webservice to return data \, the object is locked and does not
allow other methods.;
#X text 18 128 Set the base url \, consumer key and secret (client
credentials) \, and optionally access token and secret (token credentials)
at creation or use [url( message.;
#X obj 20 174 oauth http://example.com/ CLIENTKEY CLIENTSECRET ACCESSTOKEN
ACCESSSECRET;
#X text 455 -14 The second output of [oauth] will output status data
of the request.;
#X msg 486 69 GET /echo_api.php?method=foo&bar=baz;
#X msg 504 114 POST /echo_api.php?method=foo&bar=baz;
#X obj 452 267 oauth;
#X obj 503 311 print status;
#X obj 414 306 print data;
#X msg 452 23 url http://term.ie/oauth/example key secret accesskey
accesssecret;
#X msg 22 326 method PLAINTEXT;
#X obj 22 425 oauth;
#X msg 73 355 method HMAC;
#X text 537 150 By default \, requests do not timeout. To set a maximal
time in milliseconds \, set a value with [timeout( message. To clear
the value and return to the default \, use an empty [timeout( message.
;
#X msg 556 238 timeout;
#X msg 540 204 timeout 2000;
#X msg 82 383 method RSA privatekey;
#N canvas 103 105 913 619 RSA 0;
#X msg -89 318 GET /echo_api.php?method=foo&bar=baz;
#X msg -92 361 POST /echo_api.php?method=foo&bar=baz;
#X obj -128 409 oauth;
#X obj -166 448 print data-rsa;
#X obj -46 445 print status-rsa;
#X msg -114 -44 method RSA -----BEGIN PRIVATE KEY----- MIICdgIBADANBgkqhkiG9w0BAQEFAASCAmAwggJcAgEAAoGBALRiMLAh9iimur8V
A7qVvdqxevEuUkW4K+2KdMXmnQbG9Aa7k7eBjK1S+0LYmVjPKlJGNXHDGuy5Fw/d 7rjVJ0BLB+ubPK8iA/Tw3hLQgXMRRGRXXCn8ikfuQfjUS1uZSatdLB81mydBETlJ
hI6GH4twrbDJCR2Bwy/XWXgqgGRzAgMBAAECgYBYWVtleUzavkbrPjy0T5FMou8H X9u2AC2ry8vD/l7cqedtwMPp9k7TubgNFo+NGvKsl2ynyprOZR1xjQ7WgrgVB+mm
uScOM/5HVceFuGRDhYTCObE+y1kxRloNYXnx3ei1zbeYLPCHdhxRYW7T0qcynNmw rn05/KO2RLjgQNalsQJBANeA3Q4Nugqy4QBUCEC09SqylT2K9FrrItqL2QKc9v0Z
zO2uwllCbg0dwpVuYPYXYvikNHHg+aCWF+VXsb9rpPsCQQDWR9TT4ORdzoj+Nccn qkMsDmzt0EfNaAOwHOmVJ2RVBspPcxt5iN4HI7HNeG6U5YsFBb+/GZbgfBT3kpNG
WPTpAkBI+gFhjfJvRw38n3g/+UeAkwMI2TJQS4n8+hid0uus3/zOjDySH3XHCUno cn1xOJAyZODBo47E+67R4jV1/gzbAkEAklJaspRPXP877NssM5nAZMU0/O/NGCZ+
3jPgDUno6WbJn5cqm8MqWhW1xGkImgRk+fkDBquiq4gPiT898jusgQJAd5Zrr6Q8 AO/0isr/3aa6O6NLQxISLKcPDk2NOccAfS/xOtfOz4sJYM3+Bs4Io9+dZGSDCA54
Lw03eHTNQghS0A== -----END PRIVATE KEY-----;
#X msg -142 -95 url http://term.ie/oauth/example key secret accesskey
accesssecret;
#X text 293 -39 RSA-SHA1 is not implemented in liboauth (at least up
to version 1.0.0. So this will not work \, but is here for completeness.
When your version of liboauth supports signing with RSA-SHA1 \, then
this should work.;
#X connect 0 0 2 0;
#X connect 1 0 2 0;
#X connect 2 0 3 0;
#X connect 2 1 4 0;
#X connect 5 0 2 0;
#X connect 6 0 2 0;
#X restore 327 300 pd RSA;
#X text 20 256 The method message will set the OAUTH signature method.
Default is HMAC (HMAC-SHA1). For RSA (RSA-SHA1) you have to submit
your private key \, but it not implemented in liboauth yet.;
#X connect 10 0 12 0;
#X connect 11 0 12 0;
#X connect 12 0 14 0;
#X connect 12 1 13 0;
#X connect 15 0 12 0;
#X connect 16 0 17 0;
#X connect 18 0 17 0;
#X connect 20 0 12 0;
#X connect 21 0 12 0;
#X connect 22 0 17 0;
