#N canvas 44 51 805 410 10;
#X declare -lib purest_json;
#X obj 110 120 import purest_json;
#X obj 343 267 rest;
#X obj 279 306 json-decode;
#X obj 343 57 inlet;
#X obj 279 347 outlet;
#X obj 342 347 outlet;
#X obj 407 347 outlet;
#X obj 436 90 loadbang;
#X obj 436 118 t b b b b b;
#X obj 436 195 pack s s s s s;
#X msg 436 156 url;
#X obj 473 156 symbol \$1;
#X obj 536 156 symbol \$2;
#X obj 683 156 symbol \$4;
#X obj 605 156 symbol \$3;
#X obj 436 232 route list;
#X connect 1 0 2 0;
#X connect 1 1 6 0;
#X connect 2 0 4 0;
#X connect 2 1 5 0;
#X connect 3 0 1 0;
#X connect 7 0 8 0;
#X connect 8 0 10 0;
#X connect 8 1 11 0;
#X connect 8 2 12 0;
#X connect 8 3 14 0;
#X connect 8 4 13 0;
#X connect 9 0 15 0;
#X connect 10 0 9 0;
#X connect 11 0 9 1;
#X connect 12 0 9 2;
#X connect 13 0 9 4;
#X connect 14 0 9 3;
#X connect 15 0 1 0;
