#N canvas 151 114 756 544 10;
#X obj 156 118 rest-json;
#X msg 156 19 GET http://bitcoincharts.com/t/markets.json;
#X msg 171 45 GET http://bitcoincharts.com/t/weighted_prices.json;
#X obj 156 154 list split 1;
#X obj 190 182 json-decode;
#X obj 297 259 list split 1;
#X obj 326 455 dac~;
#X obj 297 221 fifop;
#X obj 297 185 metro 1000;
#X msg 363 152 stop;
#X obj 333 403 *~ 0;
#X msg 413 340 0;
#X msg 270 340 1;
#X obj 60 209 print original-data;
#X obj 270 155 t b b;
#X obj 386 260 t b b;
#X obj 331 340 phasor~ 100;
#X obj 358 318 * 15;
#X obj 332 369 bp~ 200 5;
#X obj 331 318 * 8;
#X obj 331 290 t f f;
#X connect 0 0 3 0;
#X connect 0 0 13 0;
#X connect 0 1 14 0;
#X connect 1 0 0 0;
#X connect 2 0 0 0;
#X connect 3 1 4 0;
#X connect 4 0 7 0;
#X connect 5 1 20 0;
#X connect 7 0 5 0;
#X connect 7 1 15 0;
#X connect 8 0 7 0;
#X connect 9 0 8 0;
#X connect 10 0 6 0;
#X connect 10 0 6 1;
#X connect 11 0 10 1;
#X connect 12 0 10 1;
#X connect 14 0 12 0;
#X connect 14 1 8 0;
#X connect 15 0 9 0;
#X connect 15 1 11 0;
#X connect 16 0 18 0;
#X connect 17 0 18 1;
#X connect 18 0 10 0;
#X connect 19 0 16 0;
#X connect 20 0 19 0;
#X connect 20 1 17 0;
