#N canvas 44 51 1002 589 10;
#X obj 358 60 import purest_json;
#X obj 143 30 loadbang;
#X obj 175 277 stdout;
#X obj 143 308 ../common/close-if-no-gui;
#X obj 143 248 t b a;
#X obj 143 216 json-decode;
#X obj 143 172 json-encode;
#X obj 143 62 t b b b b;
#X msg 203 119 add key value;
#X msg 183 147 add key2 2;
#X msg 163 98 add key3 0.1;
#X connect 1 0 7 0;
#X connect 4 0 3 0;
#X connect 4 1 2 0;
#X connect 5 0 4 0;
#X connect 5 1 2 0;
#X connect 6 0 5 0;
#X connect 7 0 6 0;
#X connect 7 1 10 0;
#X connect 7 2 9 0;
#X connect 7 3 8 0;
#X connect 8 0 6 0;
#X connect 9 0 6 0;
#X connect 10 0 6 0;
