#N canvas 44 51 1002 589 10;
#X obj 358 60 import purest_json;
#X obj 143 30 loadbang;
#X obj 175 277 stdout;
#X obj 143 308 ../common/close-if-no-gui;
#X obj 143 248 t b a;
#X obj 143 216 json-decode;
#X obj 143 62 t b b;
#X obj 143 172 json-encode;
#X msg 179 122 add key value;
#X connect 1 0 6 0;
#X connect 4 0 3 0;
#X connect 4 1 2 0;
#X connect 5 0 4 0;
#X connect 5 1 2 0;
#X connect 6 0 7 0;
#X connect 6 1 8 0;
#X connect 7 0 5 0;
#X connect 8 0 7 0;
