#N canvas 38 51 1002 589 10;
#X obj 143 30 loadbang;
#X obj 143 286 stdout;
#X obj 217 287 ../common/close-if-no-gui;
#X obj 143 204 json-decode;
#X obj 143 172 textfile;
#X obj 143 62 t b b b;
#X msg 165 120 rewind;
#X obj 358 60 import purest_json zexy;
#X msg 233 120 read array.txt;
#X connect 0 0 5 0;
#X connect 3 0 1 0;
#X connect 3 1 1 0;
#X connect 3 1 2 0;
#X connect 4 0 3 0;
#X connect 5 0 4 0;
#X connect 5 1 6 0;
#X connect 5 2 8 0;
#X connect 6 0 4 0;
#X connect 8 0 4 0;
