#N canvas 44 51 1002 589 10;
#X obj 358 60 import purest_json;
#X obj 143 66 loadbang;
#X obj 175 277 stdout;
#X obj 144 308 ../common/close-if-no-gui;
#X obj 143 248 t b a;
#X obj 143 216 urlparams;
#X msg 189 140 add key value;
#X obj 143 102 t b b b;
#X msg 166 173 add key other;
#X connect 1 0 7 0;
#X connect 4 0 3 0;
#X connect 4 1 2 0;
#X connect 5 0 4 0;
#X connect 6 0 5 0;
#X connect 7 0 5 0;
#X connect 7 1 8 0;
#X connect 7 2 6 0;
#X connect 8 0 5 0;
