#N canvas 44 51 1002 589 10;
#X obj 143 31 loadbang;
#X obj 175 277 stdout;
#X obj 144 308 ../common/close-if-no-gui;
#X obj 143 248 t b a;
#X obj 143 67 t b b;
#X obj 143 216 urlparams;
#X obj 358 60 import purest_json zexy;
#X msg 175 164 add key#$ value;
#X connect 0 0 4 0;
#X connect 3 0 2 0;
#X connect 3 1 1 0;
#X connect 4 0 5 0;
#X connect 4 1 7 0;
#X connect 5 0 3 0;
#X connect 7 0 5 0;
