#N canvas 42 51 999 548 10;
#X obj 85 67 inlet;
#X msg 85 252 \; pd quit;
#X obj 85 220 spigot 0;
#X msg 138 192 1;
#X obj 138 162 r unittest;
#X obj 85 92 del 40;
#X connect 0 0 5 0;
#X connect 2 0 1 0;
#X connect 3 0 2 1;
#X connect 4 0 3 0;
#X connect 5 0 2 0;
