#N canvas 75 35 1002 589 10;
#X msg 9 38 url http://127.0.0.1:5984/;
#X obj 363 136 json-encode;
#X msg 824 36 bang;
#X msg 822 82 clear;
#X obj 390 185 print json-encoded data;
#X obj 363 159 t a a;
#X obj 363 282 json-decode;
#X obj 363 315 print decode json data;
#X msg 257 42 add value 440;
#X obj 140 509 line;
#X floatatom 140 536 5 0 0 0 - - -;
#X obj 139 456 pack f f f;
#X msg 139 484 \$1 \, \$2 \$3;
#X msg 372 93 add start 10;
#X obj 154 352 list trim;
#X obj 86 381 t b b b b;
#X obj 266 429 print id;
#X obj 139 428 f;
#X obj 176 428 f;
#X obj 214 428 f;
#X msg 474 63 add name first note;
#X obj 328 430 print name;
#X msg 329 70 add duration 1000;
#X msg 451 30 add name wrong name;
#X obj 154 380 route start value duration _id name on;
#X msg 646 92 add on TRUE;
#X msg 88 75 PUT test;
#X msg 154 111 GET test;
#X msg 234 269 DELETE test;
#X obj -48 381 print couchdb return;
#X msg 234 242 GET test/1;
#X msg 235 212 PUT test/1 \$1;
#X msg 483 91 array var yabba;
#X msg 616 30 array var dabba;
#X msg 640 61 array var doo;
#X obj 154 306 rest-json;
#X msg 552 296 GET _uuids?count=4;
#X obj 552 397 route uuids;
#X obj 552 367 list trim;
#X obj 552 450 json-decode;
#X obj 671 483 print array-done;
#X obj 552 483 print array-decode;
#X obj 552 422 l2s;
#X obj 552 329 rest-json http://127.0.0.1:5984/;
#N canvas 120 66 1112 677 webservices 0;
#X obj 129 351 rest-json;
#X obj 204 399 print data;
#X msg 381 310 GET http://search.twitter.com/search.json?q=%23puredata
;
#X msg 311 257 GET https://ajax.googleapis.com/ajax/services/search/web?v=2.0&q=puredata
;
#X obj 129 399 list trim;
#X obj 129 482 json-decode;
#X obj 250 516 print array-done;
#X obj 129 515 print array-decode;
#X obj 129 454 l2s;
#X obj 129 429 route commits;
#X msg 75 21 GET https://github.com/api/v2/json/commits/list/residuum/PuRestJson/master
;
#X msg 129 72 GET https://github.com/api/v2/json/commits/list/residuum/PuRestJson/master/Makefile
;
#X msg 172 130 GET http://www.reddit.com/r/all/search.json?q=puredata
;
#X msg 222 160 GET http://en.wikipedia.org/w/api.php?action=query&titles=Puredata&prop=info|links&format=json
;
#X msg 264 210 GET http://gdata.youtube.com/feeds/api/videos?q?puredata&v=2&alt=jsonc
;
#X text 274 400 Only connect when running Pd with -stderr.;
#X connect 0 0 4 0;
#X connect 2 0 0 0;
#X connect 3 0 0 0;
#X connect 4 0 9 0;
#X connect 5 0 7 0;
#X connect 5 1 6 0;
#X connect 8 0 5 0;
#X connect 9 0 8 0;
#X connect 10 0 0 0;
#X connect 11 0 0 0;
#X connect 12 0 0 0;
#X connect 13 0 0 0;
#X connect 14 0 0 0;
#X restore -42 467 pd webservices;
#X connect 0 0 35 0;
#X connect 1 0 5 0;
#X connect 2 0 1 0;
#X connect 3 0 1 0;
#X connect 5 0 31 0;
#X connect 5 0 6 0;
#X connect 5 1 4 0;
#X connect 6 0 7 0;
#X connect 8 0 1 0;
#X connect 9 0 10 0;
#X connect 11 0 12 0;
#X connect 12 0 9 0;
#X connect 13 0 1 0;
#X connect 14 0 24 0;
#X connect 15 0 17 0;
#X connect 15 1 18 0;
#X connect 15 2 19 0;
#X connect 17 0 11 0;
#X connect 18 0 11 1;
#X connect 19 0 11 2;
#X connect 20 0 1 0;
#X connect 22 0 1 0;
#X connect 23 0 1 0;
#X connect 24 0 17 1;
#X connect 24 1 18 1;
#X connect 24 2 19 1;
#X connect 24 3 16 0;
#X connect 24 4 21 0;
#X connect 25 0 1 0;
#X connect 26 0 35 0;
#X connect 27 0 35 0;
#X connect 28 0 35 0;
#X connect 30 0 35 0;
#X connect 31 0 35 0;
#X connect 32 0 1 0;
#X connect 33 0 1 0;
#X connect 34 0 1 0;
#X connect 35 0 14 0;
#X connect 35 0 29 0;
#X connect 35 1 15 0;
#X connect 36 0 43 0;
#X connect 37 0 42 0;
#X connect 38 0 37 0;
#X connect 39 0 41 0;
#X connect 39 1 40 0;
#X connect 42 0 39 0;
#X connect 43 0 38 0;
