#N canvas 42 51 1002 589 10;
#X obj 363 136 json-encode;
#X msg 824 36 bang;
#X msg 822 82 clear;
#X obj 402 185 print json-encoded data;
#X obj 382 254 json-decode;
#X msg 257 42 add value 440;
#X obj 140 509 line;
#X floatatom 140 536 5 0 0 0 - - -, f 5;
#X obj 139 456 pack f f f;
#X msg 139 484 \$1 \, \$2 \$3;
#X msg 372 93 add start 10;
#X obj 154 352 list trim;
#X obj 266 429 print id;
#X obj 139 428 f;
#X msg 474 63 add name first note;
#X obj 328 430 print name;
#X msg 329 70 add duration 1000;
#X msg 451 30 add name wrong name;
#X obj 154 380 route start value duration _id name on;
#X msg 646 92 add on TRUE;
#X msg 88 75 PUT test;
#X msg 154 111 GET test;
#X msg 234 269 DELETE test;
#X msg 234 242 GET test/1;
#X msg 235 212 PUT test/1 \$1;
#X msg 483 91 array var yabba;
#X msg 616 30 array var dabba;
#X msg 640 61 array var doo;
#X obj 154 306 rest-json;
#X msg 552 296 GET _uuids?count=4;
#X obj 552 397 route uuids;
#X obj 552 367 list trim;
#X obj 552 450 json-decode;
#X obj 671 483 print array-done;
#X obj 552 483 print array-decode;
#X obj 552 329 rest-json http://127.0.0.1:5984/;
#N canvas 86 51 1112 677 webservices 0;
#X obj 129 351 rest-json;
#X msg 16 8 GET http://search.twitter.com/search.json?q=%23puredata
;
#X msg 311 257 GET https://ajax.googleapis.com/ajax/services/search/web?v=2.0&q=puredata
;
#X obj 129 399 list trim;
#X obj 129 482 json-decode;
#X obj 250 516 print array-done;
#X obj 129 515 print array-decode;
#X msg 172 130 GET http://www.reddit.com/r/all/search.json?q=puredata
;
#X msg 222 160 GET http://en.wikipedia.org/w/api.php?action=query&titles=Puredata&prop=info|links&format=json
;
#X msg 264 210 GET http://gdata.youtube.com/feeds/api/videos?q?puredata&v=2&alt=jsonc
;
#X obj 129 429 route results;
#X obj 204 399 print data-done;
#X msg 127 79 GET https://api.github.com/repos/residuum/PuRestJson/contents/Makefile
;
#X msg 79 45 GET https://api.github.com/repos/residuum/PuRestJson/readme
;
#X connect 0 0 3 0;
#X connect 0 1 11 0;
#X connect 1 0 0 0;
#X connect 2 0 0 0;
#X connect 3 0 10 0;
#X connect 4 0 6 0;
#X connect 4 1 5 0;
#X connect 7 0 0 0;
#X connect 8 0 0 0;
#X connect 9 0 0 0;
#X connect 10 0 4 0;
#X connect 12 0 0 0;
#X connect 13 0 0 0;
#X restore -42 467 pd webservices;
#X obj -48 381 print couchdb_return;
#X obj 382 287 print decode_json_data;
#X obj 552 423 l2s;
#X obj 237 353 print status_messages;
#X obj 757 549 import purest_json;
#X obj 363 159 t a a a;
#X msg 9 38 init http://127.0.0.1:5984/;
#X connect 0 0 42 0;
#X connect 1 0 0 0;
#X connect 2 0 0 0;
#X connect 4 0 38 0;
#X connect 5 0 0 0;
#X connect 6 0 7 0;
#X connect 8 0 9 0;
#X connect 9 0 6 0;
#X connect 10 0 0 0;
#X connect 11 0 18 0;
#X connect 13 0 8 0;
#X connect 14 0 0 0;
#X connect 16 0 0 0;
#X connect 17 0 0 0;
#X connect 18 0 13 1;
#X connect 18 1 8 1;
#X connect 18 2 8 2;
#X connect 18 3 12 0;
#X connect 18 4 15 0;
#X connect 19 0 0 0;
#X connect 20 0 28 0;
#X connect 21 0 28 0;
#X connect 22 0 28 0;
#X connect 23 0 28 0;
#X connect 24 0 28 0;
#X connect 25 0 0 0;
#X connect 26 0 0 0;
#X connect 27 0 0 0;
#X connect 28 0 11 0;
#X connect 28 0 37 0;
#X connect 28 1 13 0;
#X connect 28 2 40 0;
#X connect 29 0 35 0;
#X connect 30 0 39 0;
#X connect 31 0 30 0;
#X connect 32 0 34 0;
#X connect 32 1 33 0;
#X connect 35 0 31 0;
#X connect 39 0 32 0;
#X connect 42 0 24 0;
#X connect 42 1 4 0;
#X connect 42 2 3 0;
#X connect 43 0 28 0;
