#N canvas 44 51 1114 567 10;
#X obj 88 70 version;
#X obj 61 19 bng 15 250 50 0 empty empty empty 17 7 0 10 -262144 -1
-1;
#X obj 88 98 unpack f f f s s s;
#X msg 88 125 add major \$1;
#X obj 61 44 t b b;
#X msg 109 149 add minor \$1;
#X msg 130 172 add bugfix \$1;
#X msg 192 243 add time \$1;
#X obj 61 308 json-encode;
#X obj 61 413 rest-json;
#X obj 213 333 print json-data;
#X obj 61 440 print;
#X obj 411 166 rest-json https://residuum.cloudant.com/ _session tyfordarringlichatenteds
IahoEPP50FTg2DaInWYjw70a;
#X msg 479 417 url https://residuum.cloudant.com/ _session tyfordarringlichatenteds
IahoEPP50FTg2DaInWYjw70a;
#X msg 173 220 add date \$1;
#X msg 152 196 add distribution \$1;
#X obj 479 461 rest-json;
#X msg 61 359 PUT https://tyfordarringlichatenteds:IahoEPP50FTg2DaInWYjw70a@residuum.cloudant.com/purest-json-stat/
\$1;
#X msg 439 128 url;
#X obj 411 209 print;
#X msg 490 105 GET https://tyfordarringlichatenteds:IahoEPP50FTg2DaInWYjw70a@residuum.cloudant.com/purest-json-stat/
;
#X msg 411 44 GET purest-json-stat/;
#X connect 0 0 2 0;
#X connect 1 0 4 0;
#X connect 2 0 3 0;
#X connect 2 1 5 0;
#X connect 2 2 6 0;
#X connect 2 3 15 0;
#X connect 2 4 14 0;
#X connect 2 5 7 0;
#X connect 3 0 8 0;
#X connect 4 0 8 0;
#X connect 4 1 0 0;
#X connect 5 0 8 0;
#X connect 6 0 8 0;
#X connect 7 0 8 0;
#X connect 8 0 10 0;
#X connect 8 0 17 0;
#X connect 9 0 11 0;
#X connect 12 0 19 0;
#X connect 13 0 16 0;
#X connect 14 0 8 0;
#X connect 15 0 8 0;
#X connect 17 0 9 0;
#X connect 18 0 12 0;
#X connect 20 0 12 0;
#X connect 21 0 12 0;
