#N canvas 422 63 1023 589 10;
#X declare -stdlib zexy -path purest_json;
#X obj 426 514 dac~;
#X obj 433 460 *~ 0;
#X obj 432 412 line \$1 20;
#X obj 434 484 *~ 0;
#X obj 544 316 vsl 15 128 0 1 0 0 empty empty volume 0 -9 0 10 #fcfcfc
#000000 #000000 0 1;
#X obj 174 73 rest;
#X obj 81 68 tgl 15 0 empty empty empty 17 7 0 10 #fcfcfc #000000 #000000
0 1;
#X floatatom 211 346 7 0 0 3 USD - - 0;
#X symbolatom 272 346 10 0 0 3 Date - - 0;
#X obj 432 434 osc~;
#X obj 184 153 t b b;
#N canvas 626 288 864 436 print-to-console 0;
#X obj 28 17 inlet;
#X obj 308 26 inlet;
#X obj 172 28 inlet;
#X obj 431 18 inlet;
#X obj 308 135 print decoded-data;
#X obj 28 101 spigot;
#X obj 308 106 spigot;
#X obj 28 128 print complete-data;
#X obj 172 131 print decoding-done;
#X obj 172 100 spigot;
#X connect 0 0 5 0;
#X connect 1 0 6 0;
#X connect 2 0 9 0;
#X connect 3 0 9 1;
#X connect 3 0 5 1;
#X connect 3 0 6 1;
#X connect 5 0 7 0;
#X connect 6 0 4 0;
#X connect 9 0 8 0;
#X restore 12 231 pd print-to-console;
#N canvas 1228 385 450 315 process-data 0;
#X obj 55 186 fifop;
#X obj 83 66 list trim;
#X obj 120 131 l2s;
#X obj 55 157 pack f f s;
#X obj 55 211 unpack f f s;
#X obj 130 17 inlet;
#X obj 55 18 inlet;
#X obj 199 15 inlet;
#X obj 76 240 outlet;
#X obj 136 240 outlet;
#X text 104 186 use a fifo buffer for the values (from zexy);
#X obj 197 240 outlet;
#X obj 83 104 route USD DAY;
#X connect 0 0 4 0;
#X connect 0 1 11 0;
#X connect 1 0 12 0;
#X connect 2 0 3 2;
#X connect 3 0 0 0;
#X connect 4 1 8 0;
#X connect 4 2 9 0;
#X connect 5 0 1 0;
#X connect 6 0 3 0;
#X connect 7 0 0 0;
#X connect 12 0 3 1;
#X connect 12 1 2 0;
#X restore 211 297 pd process-data;
#X obj 432 364 log;
#X obj 432 391 * 100;
#N canvas 3 83 340 322 stepper 0;
#X obj 59 28 inlet;
#X obj 112 28 inlet;
#X obj 59 282 outlet;
#X msg 254 239 0;
#X msg 136 237 1;
#X obj 59 123 spigot 1;
#X obj 112 61 t b b b;
#X obj 59 151 t b b b;
#X msg 184 169 0;
#X msg 112 89 1;
#X obj 59 237 metro 50;
#X obj 136 283 outlet;
#X msg 135 200 stop, f 5;
#X connect 0 0 5 0;
#X connect 1 0 6 0;
#X connect 3 0 11 0;
#X connect 4 0 11 0;
#X connect 5 0 7 0;
#X connect 6 0 9 0;
#X connect 6 1 12 0;
#X connect 6 2 3 0;
#X connect 7 0 10 0;
#X connect 7 1 4 0;
#X connect 7 2 8 0;
#X connect 8 0 5 1;
#X connect 9 0 5 1;
#X connect 10 0 2 0;
#X connect 12 0 10 0;
#X restore 420 219 pd stepper;
#X obj 184 110 json-decode, f 12;
#X msg 174 44 GET https://ix.residuum.org/pd/bitcoin_example.php;
#X obj 655 60 declare -stdlib zexy -path purest_json;
#X connect 1 0 3 0;
#X connect 2 0 9 0;
#X connect 3 0 0 1;
#X connect 3 0 0 0;
#X connect 4 0 3 1;
#X connect 5 1 16 0;
#X connect 5 1 11 0;
#X connect 6 0 11 3;
#X connect 9 0 1 0;
#X connect 10 0 15 0;
#X connect 10 1 12 0;
#X connect 12 0 7 0;
#X connect 12 0 13 0;
#X connect 12 1 8 0;
#X connect 12 2 15 1;
#X connect 13 0 14 0;
#X connect 14 0 2 0;
#X connect 15 0 12 2;
#X connect 15 1 1 1;
#X connect 16 0 10 0;
#X connect 16 0 11 1;
#X connect 16 1 11 2;
#X connect 16 1 12 1;
#X connect 17 0 5 0;
