#N canvas 432 51 756 644 10;
#X declare -lib zexy -lib purest_json;
#X obj 188 521 dac~;
#X obj 193 233 fifop;
#X msg 349 170 stop;
#X obj 195 467 *~ 0;
#X msg 368 412 0;
#X msg 406 414 1;
#X obj -10 98 print original-data;
#X obj 193 373 phasor~ 100;
#X obj 194 433 bp~ 200 5;
#X obj 193 286 t f f;
#X obj 193 399 -~ 0.5;
#X obj 193 343 line \$1 20;
#X obj 266 344 line \$1 20;
#X obj 134 112 list trim;
#X obj 253 150 spigot 1;
#X obj 349 344 t b b b;
#X obj 253 172 t b b b;
#X msg 348 109 0;
#X msg 388 109 1;
#X text 392 143 start metro only once \, as each json object from the
array outputs a bang at the right outlet of rest-json;
#X text 400 230 use a fifo buffer for the values (from zexy);
#X obj 19 300 import zexy purest_json;
#X obj 196 491 *~ 0;
#X obj 492 301 vsl 15 128 0 1 0 0 empty empty volume 0 -9 0 10 -262144
-1 -1 3700 1;
#X obj 134 35 rest;
#X obj 134 70 json-decode;
#X obj 31 183 print decoded-data;
#X msg 134 -77 GET https://free-ec2.scraperwiki.com/bpskqzy/ba1d1e4b65294f1/sql/?q=select%20%0A%20%20%20%20strftime%28%27%25Y-%25m-%25d%27%2C%0A%20%20%20%20%20%20%20%20datetime%28DATE%2C%20%27unixepoch%27%29%29%20as%20DAY%2C%0A%09cast%28USD%20as%20real%29%20as%20USD%2C%0A%20%20%20%20cast%28EUR%20as%20real%29%20as%20EUR%0Afrom%20swdata%0Aorder%20by%20DATE
;
#X obj 134 149 route EUR USD DAY;
#X obj -10 70 spigot;
#X obj 23 26 tgl 15 0 empty empty empty 17 7 0 10 -262144 -1 -1 0 1
;
#X obj 193 315 * 5;
#X obj 266 317 * 10;
#X obj 167 200 pack f s;
#X obj 193 263 unpack f s;
#X floatatom 40 416 7 0 0 3 USD - -;
#X symbolatom 90 417 10 0 0 3 Date - -;
#X obj 212 173 l2s;
#X obj 253 205 metro 50;
#X connect 1 0 34 0;
#X connect 1 1 15 0;
#X connect 2 0 38 0;
#X connect 3 0 22 0;
#X connect 4 0 3 1;
#X connect 5 0 3 1;
#X connect 7 0 10 0;
#X connect 8 0 3 0;
#X connect 9 0 31 0;
#X connect 9 1 32 0;
#X connect 10 0 8 0;
#X connect 11 0 7 0;
#X connect 12 0 8 1;
#X connect 13 0 28 0;
#X connect 14 0 16 0;
#X connect 15 0 2 0;
#X connect 15 1 4 0;
#X connect 15 2 18 0;
#X connect 16 0 38 0;
#X connect 16 1 5 0;
#X connect 16 2 17 0;
#X connect 17 0 14 1;
#X connect 18 0 14 1;
#X connect 22 0 0 1;
#X connect 22 0 0 0;
#X connect 23 0 22 1;
#X connect 24 0 25 0;
#X connect 24 0 29 0;
#X connect 25 0 13 0;
#X connect 25 0 26 0;
#X connect 25 1 14 0;
#X connect 27 0 24 0;
#X connect 28 1 33 0;
#X connect 28 2 37 0;
#X connect 29 0 6 0;
#X connect 30 0 29 1;
#X connect 31 0 11 0;
#X connect 32 0 12 0;
#X connect 33 0 1 0;
#X connect 34 0 9 0;
#X connect 34 0 35 0;
#X connect 34 1 36 0;
#X connect 37 0 33 1;
#X connect 38 0 1 0;
