#N canvas 422 51 1023 589 10;
#X obj 417 532 dac~;
#X obj 424 478 *~ 0;
#X obj 423 430 line \$1 20;
#X obj 658 60 import zexy purest_json;
#X obj 425 502 *~ 0;
#X obj 535 334 vsl 15 128 0 1 0 0 empty empty volume 0 -9 0 10 -262144
-1 -1 5800 1;
#X obj 184 156 rest;
#X obj 184 193 json-decode, f 12;
#X msg 184 44 GET https://free-ec2.scraperwiki.com/bpskqzy/ba1d1e4b65294f1/sql/?q=select%20%0A%20%20%20%20strftime%28%27%25Y-%25m-%25d%27%2C%0A%20%20%20%20%20%20%20%20datetime%28DATE%2C%20%27unixepoch%27%29%29%20as%20DAY%2C%0A%09cast%28USD%20as%20real%29%20as%20USD%2C%0A%20%20%20%20cast%28EUR%20as%20real%29%20as%20EUR%0Afrom%20swdata%0Aorder%20by%20DATE
;
#X obj 81 151 tgl 15 0 empty empty empty 17 7 0 10 -262144 -1 -1 0
1;
#X floatatom 183 425 7 0 0 3 USD - -, f 7;
#X symbolatom 244 425 10 0 0 3 Date - -, f 10;
#X obj 423 452 osc~;
#X obj 266 217 t b b;
#N canvas 626 288 482 436 print-to-console 0;
#X obj 28 17 inlet;
#X obj 175 19 inlet;
#X obj 328 20 inlet;
#X obj 431 18 inlet;
#X obj 175 129 print decoded-data;
#X obj 28 101 spigot;
#X obj 175 100 spigot;
#X obj 28 128 print complete-data;
#X obj 328 128 print decoding-done;
#X obj 328 97 spigot;
#X connect 0 0 5 0;
#X connect 1 0 6 0;
#X connect 2 0 9 0;
#X connect 3 0 9 1;
#X connect 3 0 5 1;
#X connect 3 0 6 1;
#X connect 5 0 7 0;
#X connect 6 0 4 0;
#X connect 9 0 8 0;
#X restore 12 314 pd print-to-console;
#N canvas 870 604 450 315 process-data 0;
#X obj 31 186 fifop;
#X obj 26 66 list trim;
#X obj 26 104 route EUR USD DAY;
#X obj 98 131 l2s;
#X obj 31 157 pack f f s;
#X obj 31 211 unpack f f s;
#X obj 26 16 inlet;
#X obj 78 15 inlet;
#X obj 130 15 inlet;
#X obj 52 240 outlet;
#X obj 112 240 outlet;
#X text 80 186 use a fifo buffer for the values (from zexy);
#X obj 173 240 outlet;
#X connect 0 0 5 0;
#X connect 0 1 12 0;
#X connect 1 0 2 0;
#X connect 2 1 4 1;
#X connect 2 2 3 0;
#X connect 3 0 4 2;
#X connect 4 0 0 0;
#X connect 5 1 9 0;
#X connect 5 2 10 0;
#X connect 6 0 1 0;
#X connect 7 0 4 0;
#X connect 8 0 0 0;
#X restore 183 315 pd process-data;
#X obj 423 382 log;
#X obj 423 409 * 100;
#N canvas 1 78 340 322 stepper 0;
#X obj 59 28 inlet;
#X obj 112 28 inlet;
#X obj 59 282 outlet;
#X msg 254 239 0;
#X msg 136 237 1;
#X obj 59 123 spigot 1;
#X obj 112 61 t b b b;
#X obj 59 151 t b b b;
#X msg 184 169 0;
#X msg 112 89 1;
#X obj 59 237 metro 50;
#X obj 136 283 outlet;
#X msg 135 200 stop, f 5;
#X connect 0 0 5 0;
#X connect 1 0 6 0;
#X connect 3 0 11 0;
#X connect 4 0 11 0;
#X connect 5 0 7 0;
#X connect 6 0 9 0;
#X connect 6 1 12 0;
#X connect 6 2 3 0;
#X connect 7 0 10 0;
#X connect 7 1 4 0;
#X connect 7 2 8 0;
#X connect 8 0 5 1;
#X connect 9 0 5 1;
#X connect 10 0 2 0;
#X connect 12 0 10 0;
#X restore 266 254 pd stepper;
#X connect 1 0 4 0;
#X connect 2 0 12 0;
#X connect 4 0 0 1;
#X connect 4 0 0 0;
#X connect 5 0 4 1;
#X connect 6 0 7 0;
#X connect 6 0 14 0;
#X connect 7 0 14 1;
#X connect 7 0 15 0;
#X connect 7 1 13 0;
#X connect 7 1 14 2;
#X connect 8 0 6 0;
#X connect 9 0 14 3;
#X connect 12 0 1 0;
#X connect 13 0 18 0;
#X connect 13 1 15 1;
#X connect 15 0 10 0;
#X connect 15 0 16 0;
#X connect 15 1 11 0;
#X connect 15 2 18 1;
#X connect 16 0 17 0;
#X connect 17 0 2 0;
#X connect 18 0 15 2;
#X connect 18 1 1 1;
