#N canvas 514 12 756 544 10;
#X obj 156 50 rest-json;
#X msg 156 10 GET http://bitcoincharts.com/t/weighted_prices.json;
#X obj 156 86 list split 1;
#X obj 190 114 json-decode;
#X obj 297 191 list split 1;
#X obj 326 455 dac~;
#X obj 297 153 fifop;
#X msg 363 84 stop;
#X obj 333 403 *~ 0;
#X msg 421 369 0;
#X msg 230 367 1;
#X obj 60 141 print original-data;
#X obj 386 192 t b b;
#X obj 331 309 phasor~ 100;
#X obj 358 250 * 15;
#X obj 332 369 bp~ 200 5;
#X obj 331 250 * 8;
#X obj 331 222 t f f;
#X obj 297 117 metro 500;
#X msg 203 367 0.5;
#X msg 176 367 0.3;
#X obj 176 225 sel 30d 7d 24h;
#X obj 331 335 -~ 0.5;
#X obj 331 279 line \$1 20;
#X obj 404 280 line \$1 20;
#X floatatom 186 462 5 0 0 0 - - -;
#X connect 0 0 2 0;
#X connect 0 0 11 0;
#X connect 0 1 18 0;
#X connect 1 0 0 0;
#X connect 2 1 3 0;
#X connect 3 0 6 0;
#X connect 4 0 21 0;
#X connect 4 1 17 0;
#X connect 6 0 4 0;
#X connect 6 1 12 0;
#X connect 7 0 18 0;
#X connect 8 0 5 0;
#X connect 8 0 5 1;
#X connect 9 0 8 1;
#X connect 10 0 8 1;
#X connect 12 0 7 0;
#X connect 12 1 9 0;
#X connect 13 0 22 0;
#X connect 14 0 24 0;
#X connect 15 0 8 0;
#X connect 16 0 23 0;
#X connect 17 0 16 0;
#X connect 17 0 25 0;
#X connect 17 1 14 0;
#X connect 18 0 6 0;
#X connect 19 0 8 1;
#X connect 20 0 8 1;
#X connect 21 0 20 0;
#X connect 21 1 19 0;
#X connect 21 2 10 0;
#X connect 22 0 15 0;
#X connect 23 0 13 0;
#X connect 24 0 15 1;
