#N canvas 432 51 756 544 10;
#X declare -lib gem -lib purest_json;
#X obj 12 148 print original-data;
#X obj 156 126 list trim;
#X msg 156 51 GET http://search.twitter.com/search.json?q=%23puredata
;
#X obj 156 155 route results;
#X obj 156 182 l2s;
#X obj 156 205 json-decode;
#X obj 50 228 print results;
#X obj 156 231 list trim;
#X obj 156 288 l2s;
#X obj 214 289 l2s;
#X obj 123 320 symbol;
#X obj 169 347 pack s s;
#X obj 53 371 print packed;
#X obj 156 255 route from_user text;
#X obj 487 231 gemwin;
#X obj 487 122 tgl 15 0 empty empty empty 17 7 0 10 -262144 -1 -1 0
1;
#X msg 514 187 create;
#X obj 487 148 t f b;
#X obj 117 502 text3d;
#X msg 117 471 text \$1;
#X obj 169 371 l2s;
#X obj 34 444 gemhead;
#X msg 343 343 font \$1;
#X obj 343 320 openpanel;
#X obj 343 298 bng 15 250 50 0 empty empty empty 17 7 0 10 -262144
-1 -1;
#X obj 117 445 list-abs/list-fifo;
#X obj 117 413 metro 2000;
#X obj 34 473 scale 0.2;
#X text 401 95 1: Create Gem window and start rendering;
#X text 310 277 3: Select font and start pumping data into text3d;
#X text 154 32 2: Search Twitter;
#X text -36 12 Simple Twitter visualization with GEM and list-abstractions
;
#X obj 343 367 t b a;
#X obj 528 46 import gem purest_json;
#X obj 156 78 rest;
#X obj 156 102 json-decode;
#X connect 1 0 3 0;
#X connect 2 0 34 0;
#X connect 3 0 4 0;
#X connect 4 0 5 0;
#X connect 5 0 6 0;
#X connect 5 0 7 0;
#X connect 5 1 10 0;
#X connect 7 0 13 0;
#X connect 8 0 10 1;
#X connect 9 0 11 1;
#X connect 10 0 11 0;
#X connect 11 0 12 0;
#X connect 11 0 20 0;
#X connect 13 0 8 0;
#X connect 13 1 9 0;
#X connect 15 0 17 0;
#X connect 16 0 14 0;
#X connect 17 0 14 0;
#X connect 17 1 16 0;
#X connect 19 0 18 0;
#X connect 20 0 25 1;
#X connect 21 0 27 0;
#X connect 22 0 32 0;
#X connect 23 0 22 0;
#X connect 24 0 23 0;
#X connect 25 0 19 0;
#X connect 26 0 25 0;
#X connect 27 0 18 0;
#X connect 32 0 26 0;
#X connect 32 1 18 0;
#X connect 34 0 0 0;
#X connect 34 0 35 0;
#X connect 35 0 1 0;
