#N canvas 44 51 1002 589 10;
#X obj 143 351 json-encode;
#X obj 358 60 import purest_json;
#X obj 143 66 loadbang;
#X obj 175 412 stdout;
#X obj 143 443 ../common/close-if-no-gui;
#X obj 143 383 t b a;
#X obj 180 195 json-encode;
#X msg 161 313 add key \$1;
#X obj 143 102 t b b b b b;
#X msg 198 153 add name my name;
#X msg 347 155 add id test;
#X connect 0 0 5 0;
#X connect 2 0 8 0;
#X connect 5 0 4 0;
#X connect 5 1 3 0;
#X connect 6 0 7 0;
#X connect 7 0 0 0;
#X connect 8 0 0 0;
#X connect 8 2 6 0;
#X connect 8 3 9 0;
#X connect 8 4 10 0;
#X connect 9 0 6 0;
#X connect 10 0 6 0;
