#N canvas 44 73 1002 589 10;
#X obj 358 60 import purest_json;
#X obj 143 66 loadbang;
#X obj 175 277 stdout;
#X obj 143 308 ../common/close-if-no-gui;
#X obj 143 248 t b a;
#X obj 143 102 t b b;
#X msg 175 153 read read-large.json;
#X obj 143 214 ../../json-encode;
#X obj 17 141 bng 15 250 50 0 empty empty empty 17 7 0 10 -262144 -1
-1;
#X connect 1 0 5 0;
#X connect 4 0 3 0;
#X connect 4 1 2 0;
#X connect 5 0 7 0;
#X connect 5 1 6 0;
#X connect 6 0 7 0;
#X connect 7 0 4 0;
#X connect 8 0 5 0;
