#N canvas 44 51 585 485 10;
#X obj 141 216 json-encode;
#X obj 356 60 import purest_json;
#X obj 141 66 loadbang;
#X obj 173 277 stdout;
#X obj 142 308 close-if-no-gui;
#X msg 329 146 array key value;
#X obj 141 102 t b b b;
#X obj 141 248 t b a;
#X msg 170 147 array key value2;
#X connect 0 0 7 0;
#X connect 2 0 6 0;
#X connect 5 0 0 0;
#X connect 6 0 0 0;
#X connect 6 1 8 0;
#X connect 6 2 5 0;
#X connect 7 0 4 0;
#X connect 7 1 3 0;
#X connect 8 0 0 0;
