#N canvas 44 51 1002 589 10;
#X obj 143 79 loadbang;
#X obj 143 286 stdout;
#X obj 217 287 ../common/close-if-no-gui;
#X obj 358 60 import purest_json;
#X obj 143 204 rest;
#X obj 168 234 t b b;
#X msg 143 153 GET https://google.com/;
#X connect 0 0 6 0;
#X connect 4 0 1 0;
#X connect 4 1 5 0;
#X connect 5 0 2 0;
#X connect 5 1 1 0;
#X connect 6 0 4 0;
